<svg width="80" height="78" viewBox="0 0 80 78" fill="none" xmlns="http://www.w3.org/2000/svg">
<path d="M78.4246 23.9573H19.7814L77.3553 12.8269C77.7654 12.7476 78.128 12.5083 78.3618 12.1623C78.5961 11.8156 78.6828 11.3908 78.6029 10.98L76.8633 1.99564C76.6973 1.14115 75.8709 0.582067 75.017 0.748083L58.518 3.93717C58.4838 3.94266 58.449 3.94877 58.4149 3.9567L8.53999 13.5972C8.5345 13.5984 8.52961 13.599 8.52412 13.6003L1.2768 15.001C0.866038 15.081 0.5041 15.3196 0.270335 15.6663C0.0359601 16.0124 -0.0507099 16.4378 0.0286359 16.8479L1.74006 25.684V75.7072C1.74006 76.5776 2.44563 77.2831 3.31599 77.2831H33.4008C34.2712 77.2831 34.9768 76.5776 34.9768 75.7072C34.9768 74.8374 34.2712 74.1319 33.4008 74.1319H4.89131V36.2614H11.8865L11.8908 36.262L11.8933 36.2614H24.5935L24.5977 36.262L24.6002 36.2614H37.3052L37.3089 36.262L37.312 36.2614H50.0122L50.0158 36.262L50.0189 36.2614H62.7191L62.7227 36.262L62.7258 36.2614H76.8487V74.1319H47.5866C46.7163 74.1319 46.0107 74.8374 46.0107 75.7072C46.0107 76.5776 46.7163 77.2831 47.5866 77.2831H78.4246C79.2944 77.2831 79.9999 76.5776 79.9999 75.7072V25.5332C79.9999 24.6629 79.2944 23.9573 78.4246 23.9573ZM53.1707 33.1101L57.6763 27.1086H66.4422L61.9366 33.1101H53.1707ZM40.4626 33.1101L44.9652 27.1086H53.7353L49.2297 33.1101H40.4626ZM27.752 33.1101L32.2576 27.1086H41.0253L36.5228 33.1101H27.752ZM15.0451 33.1101L19.5507 27.1086H28.3172L23.8116 33.1101H15.0451ZM4.89131 25.5332C4.89131 24.6458 5.61457 23.9237 6.50386 23.9237C7.39253 23.9237 8.11579 24.6458 8.11579 25.5332C8.11579 26.4207 7.39253 27.1427 6.50386 27.1427C5.61457 27.1427 4.89131 26.4207 4.89131 25.5332ZM20.9466 14.409L27.2485 19.304L18.8818 20.9214L12.583 16.0258L20.9466 14.409ZM33.4228 11.9975L39.7241 16.8919L31.3623 18.5087L25.0604 13.6137L33.4228 11.9975ZM45.899 9.58597L52.1997 14.4804L43.8378 16.0966L37.5366 11.2028L45.899 9.58597ZM58.3795 7.17386L64.6765 12.0683L56.3134 13.6851L50.0128 8.79069L58.3795 7.17386ZM75.2093 10.0321L68.789 11.273L62.492 6.37858L74.0686 4.14103L75.2093 10.0321ZM8.47041 16.8205L14.7698 21.7167L10.2447 22.5913C9.3719 21.4848 8.01997 20.7725 6.50386 20.7725C5.63655 20.7725 4.82417 21.0063 4.12287 21.4121L3.4228 17.7964L8.47041 16.8205ZM4.89131 30.0126C5.39546 30.1945 5.93806 30.294 6.50386 30.294C8.57783 30.294 10.3454 28.9616 10.9979 27.1086H15.6103L11.1047 33.1101H4.89131V30.0126ZM65.8776 33.1101L70.3832 27.1086H76.8487V33.1101H65.8776Z" fill="white"/>
</svg>
