<svg width="80" height="80" viewBox="0 0 80 80" fill="none" xmlns="http://www.w3.org/2000/svg">
<path d="M74.9285 3.1296L73.6388 2.80848C59.347 -0.750564 44.4006 -0.750564 30.1088 2.80848L28.8204 3.1296C25.8369 3.87188 23.7435 6.55261 23.7467 9.62705V18.953C17.0884 20.8392 10.6688 23.4859 4.61604 26.8409L3.44669 27.4851C0.756803 28.971 -0.570156 32.1023 0.232298 35.0688L4.13012 49.6438C7.64404 62.725 17.314 73.2714 30.0415 77.9049L34.0596 79.3784C38.8259 81.0925 44.1554 79.6616 47.4214 75.7899L50.1649 72.5127C52.7188 69.4743 54.8148 66.0794 56.3877 62.4346C57.232 62.107 58.0371 61.6832 58.7866 61.1731L62.29 58.7206C73.3851 50.9465 79.9944 38.2518 80.0009 24.7043V9.62705C80.0042 6.55327 77.9114 3.87254 74.9285 3.1296V3.1296ZM48.114 70.7914L45.3698 74.0712C42.8284 77.0822 38.6834 78.1953 34.9759 76.8611L30.9577 75.3883C19.0517 71.053 10.0056 61.1868 6.71798 48.9499L2.81885 34.3749C2.33882 32.5974 3.13343 30.7224 4.74487 29.8316L5.91291 29.1874C11.5641 26.0541 17.5449 23.5565 23.7467 21.7404V24.7043C23.7559 36.7018 28.9506 48.1089 37.9934 55.9928C35.6377 56.9502 33.1506 57.548 30.6163 57.7645L20.5441 58.5813C19.9346 58.6297 19.4349 59.0849 19.3303 59.6879C19.2257 60.2908 19.5429 60.8879 20.1007 61.1384L33.4534 67.1657C36.361 68.4835 39.7945 67.5652 41.6571 64.9715L44.5791 60.9069L44.9611 61.1744C46.9878 62.5896 49.4017 63.3476 51.8738 63.3444C52.2754 63.3444 52.6639 63.2933 53.0589 63.2548C51.7136 65.9531 50.0538 68.4828 48.114 70.7914V70.7914ZM40.355 57.9011C40.7206 58.1693 41.077 58.4583 41.453 58.7206L42.3804 59.3694L39.4767 63.4097C38.3583 64.9643 36.2982 65.5137 34.554 64.7223L25.9324 60.8382L30.8321 60.4367C34.1309 60.16 37.3551 59.302 40.355 57.9011V57.9011ZM77.3221 24.7043C77.3169 37.3781 71.134 49.2527 60.7551 56.5258L57.2516 58.9783C54.0196 61.23 49.7274 61.23 46.496 58.9783L42.9939 56.5258C32.6143 49.2533 26.4307 37.3781 26.4255 24.7043V9.62705C26.4255 7.78343 27.6799 6.17657 29.4686 5.72923L30.7582 5.40681C44.6236 1.95306 59.124 1.95306 72.9894 5.40681L74.2791 5.72923C76.0671 6.17657 77.3221 7.78343 77.3221 9.62705V24.7043Z" fill="white"/>
</svg>
