<svg width="74" height="78" viewBox="0 0 74 78" fill="none" xmlns="http://www.w3.org/2000/svg">
<path d="M69.5531 71.3328V38.3996C70.2088 38.3818 70.8316 38.1091 71.2894 37.6394C71.7472 37.1696 72.0038 36.5399 72.0047 35.884V27.3437C72.0047 27.0951 71.9059 26.8566 71.7301 26.6808C71.5543 26.505 71.3158 26.4062 71.0672 26.4062H67.5281C67.2795 26.4062 67.041 26.505 66.8652 26.6808C66.6894 26.8566 66.5906 27.0951 66.5906 27.3437V29.2531H64.6797V27.3437C64.6797 27.0951 64.5809 26.8566 64.4051 26.6808C64.2293 26.505 63.9908 26.4062 63.7422 26.4062H60.2031C59.9545 26.4062 59.716 26.505 59.5402 26.6808C59.3644 26.8566 59.2656 27.0951 59.2656 27.3437V29.2531H57.3547V27.3437C57.3547 27.0951 57.2559 26.8566 57.0801 26.6808C56.9043 26.505 56.6658 26.4062 56.4172 26.4062H52.8781C52.6295 26.4062 52.391 26.505 52.2152 26.6808C52.0394 26.8566 51.9406 27.0951 51.9406 27.3437V35.8843C51.9415 36.5402 52.1981 37.1699 52.6559 37.6397C53.1136 38.1094 53.7365 38.3821 54.3922 38.4V43.8046H50.5094C50.2607 43.8046 50.0223 43.9034 49.8464 44.0792C49.6706 44.255 49.5719 44.4935 49.5719 44.7421V46.6515H48.7515V26.6203H50.3406C50.5229 26.6202 50.7013 26.567 50.8538 26.4671C51.0064 26.3672 51.1265 26.225 51.1995 26.0579C51.2724 25.8908 51.2951 25.7061 51.2646 25.5263C51.2342 25.3465 51.152 25.1795 51.0281 25.0457L37.9375 10.9121V8.64996L44.4131 5.83152C44.5784 5.75956 44.7195 5.64146 44.8193 5.49137C44.9192 5.34129 44.9737 5.16559 44.9763 4.98532C44.9789 4.80505 44.9294 4.62787 44.8338 4.47499C44.7383 4.32212 44.6007 4.20005 44.4375 4.1234L37.8244 1.0173C37.725 0.833883 37.5674 0.68883 37.3763 0.605097C37.1853 0.521365 36.9718 0.503736 36.7696 0.555001C36.5674 0.606265 36.3881 0.723496 36.26 0.888138C36.1319 1.05278 36.0624 1.25543 36.0625 1.46402V10.9121L22.9715 25.0457C22.8477 25.1795 22.7655 25.3465 22.735 25.5263C22.7046 25.7061 22.7272 25.8908 22.8002 26.0579C22.8732 26.225 22.9933 26.3672 23.1458 26.4671C23.2984 26.567 23.4767 26.6202 23.659 26.6203H25.2481V46.6515H24.4278V44.7421C24.4278 44.4935 24.329 44.255 24.1532 44.0792C23.9774 43.9034 23.7389 43.8046 23.4903 43.8046H19.6078V38.3996C20.2635 38.3818 20.8863 38.1091 21.3441 37.6394C21.8019 37.1696 22.0585 36.5399 22.0594 35.884V27.3437C22.0594 27.0951 21.9606 26.8566 21.7848 26.6808C21.609 26.505 21.3705 26.4062 21.1219 26.4062H17.5828C17.3342 26.4062 17.0957 26.505 16.9199 26.6808C16.7441 26.8566 16.6453 27.0951 16.6453 27.3437V29.2531H14.7344V27.3437C14.7344 27.0951 14.6356 26.8566 14.4598 26.6808C14.284 26.505 14.0455 26.4062 13.7969 26.4062H10.2578C10.0092 26.4062 9.7707 26.505 9.59489 26.6808C9.41907 26.8566 9.3203 27.0951 9.3203 27.3437V29.2531H7.40936V27.3437C7.40936 27.0951 7.31059 26.8566 7.13477 26.6808C6.95896 26.505 6.7205 26.4062 6.47186 26.4062H2.9328C2.68416 26.4062 2.4457 26.505 2.26989 26.6808C2.09407 26.8566 1.9953 27.0951 1.9953 27.3437V35.8843C1.9962 36.5402 2.25279 37.1699 2.71056 37.6397C3.16833 38.1094 3.79121 38.3821 4.44686 38.4V71.3328C3.2776 71.382 2.17249 71.8807 1.36202 72.7249C0.551556 73.5692 0.0983245 74.6937 0.0968628 75.864V76.5359C0.0968628 76.7845 0.195635 77.023 0.37145 77.1988C0.547266 77.3746 0.785722 77.4734 1.03436 77.4734H72.9656C73.2142 77.4734 73.4527 77.3746 73.6285 77.1988C73.8043 77.023 73.9031 76.7845 73.9031 76.5359V75.864C73.9016 74.6937 73.4484 73.5692 72.6379 72.7249C71.8275 71.8807 70.7224 71.382 69.5531 71.3328V71.3328ZM37.9375 3.14183L41.7645 4.93871L37.9375 6.60496V3.14183ZM53.8156 35.8843V28.2812H55.4797V30.1906C55.4797 30.4392 55.5784 30.6777 55.7543 30.8535C55.9301 31.0293 56.1685 31.1281 56.4172 31.1281H60.2031C60.4517 31.1281 60.6902 31.0293 60.866 30.8535C61.0418 30.6777 61.1406 30.4392 61.1406 30.1906V28.2812H62.8047V30.1906C62.8047 30.4392 62.9034 30.6777 63.0793 30.8535C63.2551 31.0293 63.4935 31.1281 63.7422 31.1281H67.5281C67.7767 31.1281 68.0152 31.0293 68.191 30.8535C68.3668 30.6777 68.4656 30.4392 68.4656 30.1906V28.2812H70.1297V35.8843C70.1295 36.055 70.0616 36.2187 69.9409 36.3394C69.8202 36.46 69.6566 36.5279 69.4859 36.5281H54.4594C54.2887 36.5279 54.125 36.46 54.0043 36.3394C53.8836 36.2187 53.8158 36.055 53.8156 35.8843V35.8843ZM37 12.6592L48.1944 24.7453H33.0937C32.8451 24.7453 32.6066 24.844 32.4308 25.0199C32.255 25.1957 32.1562 25.4341 32.1562 25.6828C32.1562 25.9314 32.255 26.1699 32.4308 26.3457C32.6066 26.5215 32.8451 26.6203 33.0937 26.6203H46.8765V46.6515H46.2297V44.7421C46.2297 44.4935 46.1309 44.255 45.9551 44.0792C45.7793 43.9034 45.5408 43.8046 45.2922 43.8046H39.4515C39.2029 43.8046 38.9644 43.9034 38.7886 44.0792C38.6128 44.255 38.514 44.4935 38.514 44.7421V46.6515H35.4859V44.7421C35.4859 44.4935 35.3871 44.255 35.2113 44.0792C35.0355 43.9034 34.7971 43.8046 34.5484 43.8046H28.7078C28.4592 43.8046 28.2207 43.9034 28.0449 44.0792C27.8691 44.255 27.7703 44.4935 27.7703 44.7421V46.6515H27.1234V26.6203H29.6562C29.9049 26.6203 30.1433 26.5215 30.3191 26.3457C30.495 26.1699 30.5937 25.9314 30.5937 25.6828C30.5937 25.4341 30.495 25.1957 30.3191 25.0199C30.1433 24.844 29.9049 24.7453 29.6562 24.7453H25.8056L37 12.6592ZM22.5531 45.6796V47.589C22.5531 47.8377 22.6519 48.0761 22.8277 48.2519C23.0035 48.4277 23.242 48.5265 23.4906 48.5265H28.7078C28.9564 48.5265 29.1949 48.4277 29.3707 48.2519C29.5465 48.0761 29.6453 47.8377 29.6453 47.589V45.6796H33.6109V47.589C33.6109 47.8377 33.7097 48.0761 33.8855 48.2519C34.0613 48.4277 34.2998 48.5265 34.5484 48.5265H39.4515C39.7002 48.5265 39.9386 48.4277 40.1145 48.2519C40.2903 48.0761 40.389 47.8377 40.389 47.589V45.6796H44.3547V47.589C44.3547 47.8377 44.4534 48.0761 44.6293 48.2519C44.8051 48.4277 45.0435 48.5265 45.2922 48.5265H50.5094C50.758 48.5265 50.9965 48.4277 51.1723 48.2519C51.3481 48.0761 51.4469 47.8377 51.4469 47.589V45.6796H55.1031V50.5937H53.325C53.0763 50.5937 52.8379 50.6925 52.6621 50.8683C52.4863 51.0441 52.3875 51.2826 52.3875 51.5312C52.3875 51.7798 52.4863 52.0183 52.6621 52.1941C52.8379 52.3699 53.0763 52.4687 53.325 52.4687H55.1031V60.1781C55.1031 60.4267 55.2019 60.6652 55.3777 60.841C55.5535 61.0168 55.792 61.1156 56.0406 61.1156C56.2892 61.1156 56.5277 61.0168 56.7035 60.841C56.8793 60.6652 56.9781 60.4267 56.9781 60.1781V56.1062H59.389C59.6377 56.1062 59.8761 56.0074 60.052 55.8316C60.2278 55.6558 60.3265 55.4173 60.3265 55.1687C60.3265 54.9201 60.2278 54.6816 60.052 54.5058C59.8761 54.33 59.6377 54.2312 59.389 54.2312H56.9781V44.7421C56.9779 44.5331 56.9078 44.3301 56.779 44.1654C56.6502 44.0008 56.47 43.8839 56.2672 43.8334V38.4031H67.6781V39.9953H65.1984C64.9498 39.9953 64.7113 40.094 64.5355 40.2699C64.3597 40.4457 64.2609 40.6841 64.2609 40.9328C64.2609 41.1814 64.3597 41.4199 64.5355 41.5957C64.7113 41.7715 64.9498 41.8703 65.1984 41.8703H67.6781V68.7843H65.3469C65.0982 68.7843 64.8598 68.8831 64.6839 69.0589C64.5081 69.2347 64.4094 69.4732 64.4094 69.7218C64.4094 69.9705 64.5081 70.2089 64.6839 70.3847C64.8598 70.5606 65.0982 70.6593 65.3469 70.6593H67.6781V71.3281H56.9781V63.4531C56.9781 63.2044 56.8793 62.966 56.7035 62.7902C56.5277 62.6144 56.2892 62.5156 56.0406 62.5156C55.792 62.5156 55.5535 62.6144 55.3777 62.7902C55.2019 62.966 55.1031 63.2044 55.1031 63.4531V66.8859H53.1672C52.9185 66.8859 52.6801 66.9847 52.5043 67.1605C52.3284 67.3363 52.2297 67.5748 52.2297 67.8234C52.2297 68.072 52.3284 68.3105 52.5043 68.4863C52.6801 68.6621 52.9185 68.7609 53.1672 68.7609H55.1031V71.3281H43.2359V66.8359H47.2219C47.4705 66.8359 47.709 66.7371 47.8848 66.5613C48.0606 66.3855 48.1594 66.147 48.1594 65.8984C48.1594 65.6498 48.0606 65.4113 47.8848 65.2355C47.709 65.0597 47.4705 64.9609 47.2219 64.9609H43.2298C43.1972 64.065 42.9415 63.1915 42.486 62.4193C42.0305 61.6472 41.3895 61.0009 40.6212 60.539L37.4806 58.664C37.3353 58.5773 37.1692 58.5314 37 58.5314C36.8307 58.5314 36.6647 58.5773 36.5194 58.664L33.3787 60.539C32.583 61.0169 31.9242 61.6921 31.4661 62.4994C31.008 63.3067 30.7662 64.2186 30.764 65.1468V68.1515H28.2125C27.9638 68.1515 27.7254 68.2503 27.5496 68.4261C27.3738 68.6019 27.275 68.8404 27.275 69.089C27.275 69.3377 27.3738 69.5761 27.5496 69.7519C27.7254 69.9277 27.9638 70.0265 28.2125 70.0265H30.764V71.3281H18.8969V65.5968H20.675C20.9236 65.5968 21.1621 65.4981 21.3379 65.3222C21.5137 65.1464 21.6125 64.908 21.6125 64.6593C21.6125 64.4107 21.5137 64.1722 21.3379 63.9964C21.1621 63.8206 20.9236 63.7218 20.675 63.7218H18.8969V45.6796H22.5531ZM41.3609 65.1468V71.3281H32.639V65.1468C32.6403 64.5429 32.7975 63.9495 33.0955 63.4243C33.3936 62.899 33.8222 62.4596 34.34 62.1487L37 60.5606L39.6605 62.1489C40.1781 62.4598 40.6066 62.8992 40.9046 63.4244C41.2025 63.9497 41.3597 64.543 41.3609 65.1468V65.1468ZM3.8703 35.8843V28.2812H5.53436V30.1906C5.53436 30.4392 5.63313 30.6777 5.80895 30.8535C5.98476 31.0293 6.22322 31.1281 6.47186 31.1281H10.2578C10.5064 31.1281 10.7449 31.0293 10.9207 30.8535C11.0965 30.6777 11.1953 30.4392 11.1953 30.1906V28.2812H12.8594V30.1906C12.8594 30.4392 12.9581 30.6777 13.1339 30.8535C13.3098 31.0293 13.5482 31.1281 13.7969 31.1281H17.5828C17.8314 31.1281 18.0699 31.0293 18.2457 30.8535C18.4215 30.6777 18.5203 30.4392 18.5203 30.1906V28.2812H20.1844V35.8843C20.1842 36.055 20.1163 36.2187 19.9956 36.3394C19.8749 36.46 19.7113 36.5279 19.5406 36.5281H4.51405C4.34337 36.5279 4.17972 36.46 4.05903 36.3394C3.93834 36.2187 3.87047 36.055 3.8703 35.8843V35.8843ZM15.2437 56.264H17.0219V64.4412C16.9864 64.5845 16.9864 64.7342 17.0219 64.8775V68.1515H14.6109C14.3623 68.1515 14.1238 68.2503 13.948 68.4261C13.7722 68.6019 13.6734 68.8404 13.6734 69.089C13.6734 69.3377 13.7722 69.5761 13.948 69.7519C14.1238 69.9277 14.3623 70.0265 14.6109 70.0265H17.0219V71.3281H6.32186V49.1468H8.7953C9.04394 49.1468 9.2824 49.0481 9.45821 48.8722C9.63403 48.6964 9.7328 48.458 9.7328 48.2093C9.7328 47.9607 9.63403 47.7222 9.45821 47.5464C9.2824 47.3706 9.04394 47.2718 8.7953 47.2718H6.32186V38.4031H17.7328V43.8334C17.5299 43.8839 17.3498 44.0008 17.221 44.1654C17.0922 44.3301 17.0221 44.5331 17.0219 44.7421V54.389H15.2437C14.9951 54.389 14.7566 54.4878 14.5808 54.6636C14.405 54.8394 14.3062 55.0779 14.3062 55.3265C14.3062 55.5752 14.405 55.8136 14.5808 55.9894C14.7566 56.1652 14.9951 56.264 15.2437 56.264V56.264ZM1.98436 75.5984C2.05105 74.9421 2.35877 74.3339 2.84799 73.8915C3.33722 73.449 3.97317 73.2037 4.6328 73.2031H69.3672C70.0268 73.2037 70.6628 73.449 71.152 73.8915C71.6412 74.3339 71.9489 74.9421 72.0156 75.5984H1.98436Z" fill="white"/>
</svg>
